<svg xmlns="http://www.w3.org/2000/svg" width="21.824" height="21.824" viewBox="0 0 21.824 21.824">
  <path id="Icon_ionic-logo-github" data-name="Icon ionic-logo-github" d="M13.162,2.25A11.056,11.056,0,0,0,2.25,13.44,11.168,11.168,0,0,0,9.713,24.055a.855.855,0,0,0,.185.019.528.528,0,0,0,.56-.555c0-.268-.01-.969-.015-1.9a4.988,4.988,0,0,1-1.1.132,2.535,2.535,0,0,1-2.577-1.632,2.955,2.955,0,0,0-1.213-1.637c-.95-.667,0-.687.068-.687h0A2.346,2.346,0,0,1,7.3,18.949a2.142,2.142,0,0,0,1.929,1.223,3.067,3.067,0,0,0,1.247-.292,2.417,2.417,0,0,1,.692-1.5C8.744,18.1,6.2,17.142,6.2,12.855a4.38,4.38,0,0,1,1.12-3,4.119,4.119,0,0,1,.107-2.962.908.908,0,0,1,.244-.024,5.188,5.188,0,0,1,2.757,1.174,10.143,10.143,0,0,1,5.466,0,5.188,5.188,0,0,1,2.757-1.174.908.908,0,0,1,.244.024A4.119,4.119,0,0,1,19,9.854a4.4,4.4,0,0,1,1.12,3c0,4.3-2.553,5.242-4.984,5.519a2.713,2.713,0,0,1,.74,2.07c0,1.5-.015,2.7-.015,3.069a.525.525,0,0,0,.555.56.943.943,0,0,0,.195-.019A11.167,11.167,0,0,0,24.074,13.44,11.056,11.056,0,0,0,13.162,2.25Z" transform="translate(-2.25 -2.25)" fill="#fff"/>
</svg>
