<svg xmlns="http://www.w3.org/2000/svg" width="20.598" height="20.597" viewBox="0 0 20.598 20.597">
  <path id="Icon_awesome-linkedin-in" data-name="Icon awesome-linkedin-in" d="M4.611,20.6H.34V6.846h4.27ZM2.473,4.97a2.485,2.485,0,1,1,2.473-2.5A2.494,2.494,0,0,1,2.473,4.97ZM20.593,20.6H16.332V13.9c0-1.6-.032-3.641-2.22-3.641-2.22,0-2.56,1.733-2.56,3.526V20.6H7.286V6.846h4.1V8.722h.06A4.487,4.487,0,0,1,15.481,6.5C19.8,6.5,20.6,9.347,20.6,13.044V20.6Z" transform="translate(0 -0.001)" fill="#fff"/>
</svg>
